{"title":"Lady Caroline Lamb","uid":9690937,"size":838313984,"categoryP":"video","categoryS":"movies","magnet":"?xt=urn:btih:7ebe3b0636bcc5a16050b95cac16f65123d1af51&amp;dn=Lady+Caroline+Lamb&amp;tr=udp%3A%2F%2Ftracker.openbittorrent.com%3A80&amp;tr=udp%3A%2F%2Fopen.demonii.com%3A1337&amp;tr=udp%3A%2F%2Ftracker.coppersurfer.tk%3A6969&amp;tr=udp%3A%2F%2Fexodus.desync.com%3A6969","seeders":4,"leechers":0,"uploader":"7","files":1,"time":1393862757,"description":" &lt;a href=&quot;http://www.imdb.com/title/tt0068827/&quot; rel=&quot;nofollow&quot; target=&quot;_NEW&quot;&gt;http://www.imdb.com/title/tt0068827/&lt;/a&gt;\n\nFormat : AVI\nFormat/Info: Audio Video Interleave\nFile size: 799 MiB\nDuration : 1h 57mn\nOverall bit rate : 951 Kbps\nWriting application: VirtualDubMod 1.5.4.1 (build 2178/release)\nWriting library: VirtualDubMod build 2178/release\n\nVideo\nID : 0\nFormat : MPEG-4 Visual\nFormat profile : Advanced Simple@L5\nFormat settings, BVOP: 1\nFormat settings, QPel: No\nFormat settings, GMC : No warppoints\nFormat settings, Matrix: Custom\nCodec ID : XVID\nCodec ID/Hint: XviD\nDuration : 1h 57mn\nBit rate : 688 Kbps\nWidth: 640 pixels\nHeight : 480 pixels\nDisplay aspect ratio : 4:3\nFrame rate : 25.000 fps\nColor space: YUV\nChroma subsampling : 4:2:0\nBit depth: 8 bits\nScan type: Progressive\nCompression mode : Lossy\nBits/(Pixel*Frame) : 0.090\nStream size: 578 MiB (72%)\nWriting library: XviD 1.2.1 (UTC 2008-12-04)\n\nAudio\nID : 1\nFormat : AC-3\nFormat/Info: Audio Coding 3\nMode extension : CM (complete main)\nCodec ID : 2000\nDuration : 1h 57mn\nBit rate mode: Constant\nBit rate : 256 Kbps\nChannel(s) : 2 channels\nChannel positions: Front: L R\nSampling rate: 48.0 KHz\nBit depth: 16 bits\nCompression mode : Lossy\nDelay relative to video: 1ms\nStream size: 215 MiB (27%)\nAlignment: Split accross interleaves\nInterleave, duration : 96 ms (2.40 video frames)\nInterleave, preload duration : 96 ms","torrent":{"xt":"urn:btih:7ebe3b0636bcc5a16050b95cac16f65123d1af51","amp;dn":"Lady+Caroline+Lamb","amp;tr":["udp%3A%2F%2Ftracker.openbittorrent.com%3A80","udp%3A%2F%2Fopen.demonii.com%3A1337","udp%3A%2F%2Ftracker.coppersurfer.tk%3A6969","udp%3A%2F%2Fexodus.desync.com%3A6969"],"infoHash":"7ebe3b0636bcc5a16050b95cac16f65123d1af51","infoHashBuffer":{"type":"Buffer","data":[126,190,59,6,54,188,197,161,96,80,185,92,172,22,246,81,35,209,175,81]},"announce":[],"urlList":[]}}